<svg width="37" height="31" viewBox="0 0 37 31" fill="none" xmlns="http://www.w3.org/2000/svg">
<path d="M7.77052 31C5.7121 31 3.89384 30.2352 2.31572 28.7056C0.771906 27.176 0 24.8646 0 21.7714C0 18.5762 0.531757 15.551 1.59527 12.6957C2.69309 9.84046 4.04821 7.30811 5.66064 5.09869C7.30737 2.88925 8.93695 1.18969 10.5494 0L15.1808 2.19243C13.7742 3.79002 12.3676 5.91447 10.9611 8.56579C9.58878 11.1831 8.81688 13.8854 8.64534 16.6727C10.5322 16.9106 12.076 17.6414 13.2768 18.8651C14.4775 20.0548 15.0779 21.6524 15.0779 23.6579C15.0779 25.8673 14.3574 27.6519 12.9165 29.0115C11.4757 30.3372 9.76032 31 7.77052 31ZM29.5897 31C27.5313 31 25.713 30.2352 24.1349 28.7056C22.5911 27.176 21.8192 24.8646 21.8192 21.7714C21.8192 18.5762 22.351 15.551 23.4145 12.6957C24.5123 9.84046 25.8674 7.30811 27.4798 5.09869C29.1266 2.88925 30.7561 1.18969 32.3686 0L37 2.19243C35.5934 3.79002 34.1868 5.91447 32.7803 8.56579C31.408 11.1831 30.6361 13.8854 30.4645 16.6727C32.3514 16.9106 33.8952 17.6414 35.096 18.8651C36.2967 20.0548 36.8971 21.6524 36.8971 23.6579C36.8971 25.8673 36.1766 27.6519 34.7357 29.0115C33.2949 30.3372 31.5795 31 29.5897 31Z" fill="#8B4513"/>
</svg>
