<svg width="28" height="24" viewBox="0 0 28 24" fill="none" xmlns="http://www.w3.org/2000/svg">
<path d="M18.9668 21.413C18.9668 22.2895 18.257 23 17.3815 23C16.5059 23 15.7962 22.2895 15.7962 21.413C15.7962 20.5365 16.5059 19.826 17.3815 19.826C18.257 19.826 18.9668 20.5365 18.9668 21.413Z" fill="#8B4513"/>
<path d="M8.92652 21.413C8.92652 22.2895 8.21675 23 7.34121 23C6.46567 23 5.75591 22.2895 5.75591 21.413C5.75591 20.5365 6.46567 19.826 7.34121 19.826C8.21675 19.826 8.92652 20.5365 8.92652 21.413Z" fill="#8B4513"/>
<path d="M5.22805 14.5359L5.4618 15.9414C5.60227 16.786 5.6725 17.2083 5.96817 17.4591C6.26385 17.7099 6.69151 17.7099 7.54684 17.7099H18.4384M5.22805 14.5359L3.93629 6.76852C3.79582 5.92389 3.72559 5.50158 3.42992 5.25079C3.13424 5 2.70658 5 1.85125 5H1M5.22805 14.5359H15.9726C17.1974 14.5359 17.8098 14.5359 18.2915 14.2654C18.4995 14.1486 18.6863 13.9974 18.8439 13.8183C19.2089 13.4033 19.337 12.8038 19.5933 11.6049C19.9703 9.84162 20.1587 8.96 19.8327 8.29978C19.694 8.01883 19.4947 7.77223 19.2492 7.5778C18.6722 7.1209 17.7716 7.12144 15.9704 7.12253L4.01963 7.12977M18.9668 21.413C18.9668 22.2895 18.257 23 17.3815 23C16.5059 23 15.7962 22.2895 15.7962 21.413C15.7962 20.5365 16.5059 19.826 17.3815 19.826C18.257 19.826 18.9668 20.5365 18.9668 21.413ZM8.92652 21.413C8.92652 22.2895 8.21675 23 7.34121 23C6.46567 23 5.75591 22.2895 5.75591 21.413C5.75591 20.5365 6.46567 19.826 7.34121 19.826C8.21675 19.826 8.92652 20.5365 8.92652 21.413Z" stroke="#8B4513" stroke-width="2" stroke-linecap="round" stroke-linejoin="round"/>
<path d="M28 3V5H20V3H28ZM25 4.95445e-05V8.00005H23V0L25 4.95445e-05Z" fill="#8B4513"/>
</svg>
