<svg width="90" height="91" viewBox="0 0 90 91" fill="none" xmlns="http://www.w3.org/2000/svg">
<path d="M24.7335 36.4233L88.1041 17.6386L82.8456 0L0 24.613L4.32911 39.4394V91H90V36.4241L24.7335 36.4233ZM84.5345 50.0673H69.0439L77.6376 41.8809H84.535L84.5345 50.0673ZM9.80035 68.2593V55.5249H84.5345V68.2593H9.80035ZM45.5239 50.0673L54.1191 41.8809H70.3707L61.7771 50.0673H45.5239ZM38.2592 50.0673H22.1063L30.7037 41.8809H46.8536L38.2592 50.0673ZM14.8417 50.0673H9.79997V41.8809H23.4397L14.8417 50.0673ZM43.8635 25.4862L28.6805 29.9978L17.8493 24.6957L33.0293 20.1823L43.8635 25.4862ZM40.2861 18.0249L55.4145 13.526L66.2525 18.8317L51.1195 23.3288L40.2861 18.0249ZM81.7203 14.2355L73.5087 16.6751L62.6707 11.3703L79.3887 6.39948L81.7203 14.2355ZM10.596 26.8532L21.4256 32.1544L8.83929 35.8947L6.49884 28.0707L10.596 26.8532ZM9.80028 72.8068H44.4332V85.5412H9.80028V72.8068ZM49.9015 85.5412V72.8068H84.5345V85.5412H49.9015Z" fill="white"/>
</svg>
