<svg xmlns="http://www.w3.org/2000/svg" width="38" height="38" fill="none"><path stroke="#8B4513" d="M19 37c9.941 0 18-8.059 18-18S28.941 1 19 1 1 9.059 1 19s8.059 18 18 18Z"/><path fill="#C8DAEA" d="M15.7 27.25c-.582 0-.483-.22-.684-.775L13.3 20.83 26.5 13"/><path fill="#A9C9DD" d="M15.7 27.25c.45 0 .648-.206.9-.45l2.4-2.334-2.994-1.805"/><path fill="url(#a)" d="m16.006 22.662 7.254 5.359c.828.457 1.425.22 1.631-.769l2.953-13.914c.302-1.212-.462-1.762-1.254-1.402L9.252 18.62c-1.184.475-1.177 1.135-.216 1.43l4.45 1.388 10.3-6.498c.487-.295.933-.137.567.188"/><defs><linearGradient id="a" x1="16.747" x2="18.67" y1="20.106" y2="26.327" gradientUnits="userSpaceOnUse"><stop stop-color="#EFF7FC"/><stop offset="1" stop-color="#fff"/></linearGradient></defs></svg>