<svg width="22" height="24" viewBox="0 0 22 24" fill="none" xmlns="http://www.w3.org/2000/svg">
<path d="M14.6194 14.3338H7.38064C3.3 14.3338 0 17.7887 0 21.9786V22.8974C0 23.1914 0.106451 23.4854 0.319355 23.6692C0.532258 23.8897 0.780645 24 1.06452 24H20.9355C21.5387 24 22 23.5222 22 22.8974V21.9786C22 17.7887 18.7 14.3338 14.6194 14.3338Z" fill="#8B4513"/>
<path d="M11 13.2312C14.5275 13.2312 17.3871 10.2693 17.3871 6.61562C17.3871 2.96191 14.5275 0 11 0C7.4725 0 4.6129 2.96191 4.6129 6.61562C4.6129 10.2693 7.4725 13.2312 11 13.2312Z" fill="#8B4513"/>
</svg>
