<svg width="19" height="24" viewBox="0 0 19 24" fill="none" xmlns="http://www.w3.org/2000/svg">
<path d="M12.0909 9.42991C12.0909 9.93856 11.939 10.4358 11.6543 10.8587C11.3696 11.2817 10.9649 11.6113 10.4915 11.8059C10.0181 12.0006 9.49713 12.0515 8.99454 11.9523C8.49195 11.8531 8.0303 11.6081 7.66795 11.2484C7.30561 10.8888 7.05885 10.4305 6.95887 9.93164C6.8589 9.43276 6.91021 8.91566 7.10631 8.44573C7.30241 7.97579 7.6345 7.57413 8.06057 7.29154C8.48664 7.00895 8.98757 6.85812 9.5 6.85812C10.1872 6.85812 10.8462 7.12907 11.3321 7.61138C11.8179 8.09368 12.0909 8.74783 12.0909 9.42991ZM19 9.42991C19 14.4535 10.4845 23.3605 10.1218 23.7377C10.0413 23.8206 9.94467 23.8866 9.83783 23.9317C9.73099 23.9768 9.61609 24 9.5 24C9.38391 24 9.26901 23.9768 9.16217 23.9317C9.05533 23.8866 8.95875 23.8206 8.87818 23.7377C8.51545 23.3605 0 14.4535 0 9.42991C0 6.92894 1.00089 4.53041 2.78249 2.76196C4.56408 0.993506 6.98044 0 9.5 0C12.0196 0 14.4359 0.993506 16.2175 2.76196C17.9991 4.53041 19 6.92894 19 9.42991ZM13.8182 9.42991C13.8182 8.58216 13.5649 7.75344 13.0904 7.04856C12.6159 6.34367 11.9415 5.79429 11.1525 5.46986C10.3635 5.14544 9.49521 5.06056 8.65757 5.22595C7.81992 5.39134 7.05049 5.79957 6.44658 6.39902C5.84268 6.99848 5.43141 7.76223 5.26479 8.59369C5.09817 9.42516 5.18369 10.287 5.51052 11.0702C5.83735 11.8534 6.39083 12.5229 7.10095 12.9939C7.81107 13.4648 8.64594 13.7162 9.5 13.7162C10.6453 13.7162 11.7436 13.2646 12.5534 12.4608C13.3632 11.657 13.8182 10.5667 13.8182 9.42991Z" fill="#8B4513"/>
</svg>
