<svg width="36" height="35" viewBox="0 0 36 35" fill="none" xmlns="http://www.w3.org/2000/svg">
<path d="M35.5401 8.09996C35.1346 7.54267 34.5315 7.22299 33.8844 7.22299C32.7176 7.22299 25.8152 7.19072 19.1403 7.15999L8.76125 7.11255L7.50869 2.04716C7.20886 0.841574 6.19977 0 5.05485 0H1.04706C0.469709 0 0 0.512178 0 1.1418C0 1.77143 0.469709 2.284 1.04706 2.284H5.05485C5.25644 2.284 5.43414 2.43178 5.48699 2.64256L10.2941 22.0808L10.2835 22.0812C9.44115 22.1147 8.65165 22.4927 8.06099 23.146C7.4355 23.8379 7.09965 24.7537 7.11492 25.7244C7.14584 27.6666 8.62073 29.2467 10.4025 29.2467H11.9553L11.9498 29.2587C11.7134 29.7997 11.5936 30.3795 11.5936 30.9811C11.5936 33.1971 13.2474 35 15.2804 35C17.3131 35 18.9669 33.1971 18.9669 30.9811C18.9669 30.3795 18.8471 29.8001 18.6103 29.2583L18.6052 29.2463H25.2981L25.2927 29.2587C25.0566 29.7993 24.9369 30.3787 24.9369 30.9804C24.9369 33.1963 26.5906 34.9992 28.6233 34.9992C30.6564 34.9992 32.3101 33.1963 32.3101 30.9804C32.3101 30.3562 32.181 29.7565 31.9261 29.198L31.9222 29.1895L31.9308 29.186C32.3579 29.0296 32.6444 28.5949 32.6444 28.1045C32.6444 27.4748 32.1747 26.9623 31.5973 26.9623H10.4025C9.47247 26.9105 9.2247 26.1246 9.22509 25.6684C9.22548 25.0699 9.60125 24.4053 10.4029 24.3617C12.2931 24.3691 15.5219 24.3707 18.9422 24.3707L30.8235 24.3695C32.0533 24.3695 33.1055 23.4571 33.3826 22.1504L35.9445 10.0581C36.0913 9.36971 35.9437 8.6553 35.5401 8.09996ZM33.9075 9.53149L32.8237 14.647H29.1509L29.7753 9.48832L33.8613 9.50543L33.8915 9.50738L33.9075 9.53149ZM31.3425 21.6371C31.2865 21.9015 31.0732 22.0863 30.8235 22.0863H28.2499L28.8742 16.9307H32.3395L31.3425 21.6371ZM26.7617 16.931L26.1377 22.0867H22.9989V16.931H26.7617ZM27.6643 9.47938L27.0384 14.647H22.9989V9.45877L27.6643 9.47938ZM20.9048 16.931V22.0867H17.7644L17.1354 16.931H20.9048ZM14.1054 9.41949L14.7438 14.647H10.6244L9.32686 9.39888L14.1054 9.41949ZM15.6519 22.0867H12.9088C12.6473 22.0867 12.4175 21.8953 12.3494 21.6211L11.1893 16.931H15.0225L15.6519 22.0867ZM16.2194 9.42882L20.9048 9.44943V14.647H16.8563L16.2194 9.42882ZM28.6229 32.716C27.7449 32.716 27.0306 31.9378 27.0306 30.9815C27.0306 30.0416 27.7316 29.2645 28.5943 29.2474H28.6483C29.5122 29.263 30.2152 30.0408 30.2152 30.9815C30.2156 31.9378 29.5013 32.716 28.6229 32.716ZM15.2785 28.8671L15.2816 29.2474C16.1592 29.2482 16.8727 30.0264 16.8727 30.9819C16.8727 31.9386 16.1584 32.7164 15.2804 32.7164C14.4025 32.7164 13.6881 31.9382 13.6881 30.9819C13.6881 30.026 14.4017 29.2482 15.2792 29.2474L15.2785 28.8671Z" fill="#8B4513"/>
</svg>
