<svg width="20" height="20" viewBox="0 0 20 20" fill="none" xmlns="http://www.w3.org/2000/svg">
<circle cx="10" cy="10" r="10" fill="#E31235"/>
<path d="M12.8262 8.4375C12.8262 8.72266 12.7812 8.98242 12.6914 9.2168C12.6016 9.45117 12.4746 9.6543 12.3105 9.82617C12.1504 9.99805 11.957 10.1406 11.7305 10.2539C11.5039 10.3633 11.252 10.4414 10.9746 10.4883V10.5234C11.666 10.6094 12.1914 10.8301 12.5508 11.1855C12.9102 11.5371 13.0898 11.9961 13.0898 12.5625C13.0898 12.9375 13.0254 13.2812 12.8965 13.5938C12.7715 13.9062 12.5801 14.1758 12.3223 14.4023C12.0645 14.6289 11.7383 14.8047 11.3438 14.9297C10.9492 15.0547 10.4824 15.1172 9.94336 15.1172C9.51758 15.1172 9.11523 15.084 8.73633 15.0176C8.36133 14.9512 8.00781 14.8301 7.67578 14.6543V13.6582C8.01562 13.8379 8.38281 13.9766 8.77734 14.0742C9.17578 14.1719 9.55664 14.2207 9.91992 14.2207C10.2793 14.2207 10.5898 14.1816 10.8516 14.1035C11.1133 14.0254 11.3281 13.9141 11.4961 13.7695C11.668 13.625 11.793 13.4473 11.8711 13.2363C11.9531 13.0254 11.9941 12.7891 11.9941 12.5273C11.9941 12.2617 11.9414 12.0352 11.8359 11.8477C11.7344 11.6562 11.5879 11.5 11.3965 11.3789C11.2051 11.2539 10.9707 11.1621 10.6934 11.1035C10.4199 11.0449 10.1094 11.0156 9.76172 11.0156H8.98242V10.1309H9.76172C10.0781 10.1309 10.3594 10.0918 10.6055 10.0137C10.8516 9.93555 11.0566 9.82422 11.2207 9.67969C11.3887 9.53516 11.5156 9.36328 11.6016 9.16406C11.6875 8.96484 11.7305 8.74609 11.7305 8.50781C11.7305 8.30469 11.6953 8.12305 11.625 7.96289C11.5547 7.80273 11.4551 7.66797 11.3262 7.55859C11.1973 7.44531 11.043 7.35938 10.8633 7.30078C10.6836 7.24219 10.4844 7.21289 10.2656 7.21289C9.84766 7.21289 9.47852 7.2793 9.1582 7.41211C8.8418 7.54102 8.53906 7.71094 8.25 7.92188L7.71094 7.18945C7.85938 7.06836 8.02344 6.95508 8.20312 6.84961C8.38672 6.74414 8.58594 6.65234 8.80078 6.57422C9.01562 6.49219 9.24414 6.42773 9.48633 6.38086C9.73242 6.33398 9.99219 6.31055 10.2656 6.31055C10.6875 6.31055 11.0566 6.36328 11.373 6.46875C11.6934 6.57422 11.9609 6.72266 12.1758 6.91406C12.3906 7.10156 12.5527 7.32617 12.6621 7.58789C12.7715 7.8457 12.8262 8.12891 12.8262 8.4375Z" fill="white"/>
</svg>
