<svg width="38" height="38" viewBox="0 0 38 38" fill="none" xmlns="http://www.w3.org/2000/svg">
<path d="M1 19C1 9.05887 9.05887 1 19 1C28.9411 1 37 9.05887 37 19C37 28.9411 28.9411 37 19 37C9.05887 37 1 28.9411 1 19Z" stroke="#8B4513"/>
<path d="M19.942 24.9073C19.942 24.9073 20.2885 24.8695 20.466 24.6823C20.6284 24.5109 20.6228 24.1873 20.6228 24.1873C20.6228 24.1873 20.6012 22.6765 21.3159 22.4534C22.0202 22.2341 22.9245 23.9145 23.8842 24.5607C24.6092 25.0492 25.1595 24.9423 25.1595 24.9423L27.7241 24.9073C27.7241 24.9073 29.0651 24.8261 28.4293 23.791C28.3767 23.7062 28.0584 23.025 26.523 21.6257C24.9144 20.161 25.1304 20.3979 27.0667 17.8639C28.2462 16.3208 28.7176 15.3787 28.5702 14.9759C28.4303 14.5906 27.5626 14.6929 27.5626 14.6929L24.6759 14.7104C24.6759 14.7104 24.4617 14.6818 24.303 14.7749C24.1481 14.8662 24.0476 15.0791 24.0476 15.0791C24.0476 15.0791 23.5912 16.2728 22.9818 17.2887C21.6962 19.4309 21.1825 19.5443 20.9722 19.4115C20.4829 19.1009 20.605 18.1653 20.605 17.5007C20.605 15.4239 20.9261 14.5583 19.9805 14.3343C19.6668 14.2597 19.4358 14.2108 18.6329 14.2025C17.6028 14.1924 16.7313 14.2062 16.2373 14.4431C15.9087 14.6007 15.6551 14.9528 15.8101 14.9731C16.0007 14.998 16.4327 15.0874 16.6618 15.3935C16.9576 15.7889 16.9473 16.6757 16.9473 16.6757C16.9473 16.6757 17.1173 19.1203 16.5501 19.4235C16.1613 19.6318 15.6279 19.2069 14.4813 17.2628C13.8944 16.2673 13.4511 15.1667 13.4511 15.1667C13.4511 15.1667 13.3657 14.9611 13.2126 14.8505C13.0276 14.7169 12.7694 14.6754 12.7694 14.6754L10.0263 14.6929C10.0263 14.6929 9.61407 14.704 9.46288 14.88C9.32859 15.0358 9.45255 15.3593 9.45255 15.3593C9.45255 15.3593 11.6002 20.2919 14.0324 22.7779C16.2627 25.0566 18.7944 24.9073 18.7944 24.9073H19.942Z" fill="white"/>
</svg>
