<svg width="25" height="24" viewBox="0 0 25 24" fill="none" xmlns="http://www.w3.org/2000/svg">
<path d="M9.24276 5.68735C9.51363 7.01073 8.92022 7.40968 8.92022 7.40968L7.1914 8.45461C6.50237 8.84708 6.87759 9.66852 6.87759 9.66852C9.57904 15.3067 12.5673 17.0034 13.6551 17.7564C14.4422 18.3013 14.9215 17.9132 14.9215 17.9132L17.1484 16.1272C17.9393 15.3821 18.5419 15.8946 18.5419 15.8946L22.9352 19.0517C23.6827 19.5553 23.3472 20.5774 22.8084 21.4589C22.2754 22.3303 20.0535 24.4076 17.2927 23.9294C14.5311 23.4518 9.62323 21.5638 6.26845 16.7264C2.88047 11.8417 1.70088 7.56475 1.70088 7.56475C0.266401 3.11933 3.94847 0.752235 3.94847 0.752235C6.84639 -1.00443 8.20248 0.866257 8.20248 0.866257C8.20248 0.866257 8.97289 4.36325 9.24276 5.68735Z" fill="#8B4513"/>
</svg>
