<svg width="650" height="260" viewBox="0 0 650 260" fill="none" xmlns="http://www.w3.org/2000/svg">
<path d="M548.457 116.413L518.141 131.609L518.662 125.458L539.832 103.008L548.457 116.413Z" fill="#324C8E"/>
<path d="M520.146 89.8388L589.507 154.666C590.258 155.368 591.171 155.871 592.165 156.129C593.158 156.388 594.2 156.393 595.196 156.146C596.192 155.898 597.111 155.406 597.87 154.712C598.628 154.018 599.203 153.145 599.542 152.172L649.654 8.25216C650.025 7.18827 650.1 6.04314 649.871 4.93974C649.642 3.83634 649.119 2.81635 648.356 1.98932C647.594 1.16228 646.622 0.559445 645.545 0.245524C644.467 -0.0683973 643.325 -0.0815343 642.24 0.207523L483.475 42.5945C482.408 42.8796 481.437 43.4469 480.662 44.2371C479.887 45.0273 479.338 46.0116 479.071 47.0876C478.803 48.1636 478.828 49.2919 479.142 50.3551C479.456 51.4183 480.048 52.3775 480.856 53.1329L520.146 89.8388Z" fill="#4E64EE"/>
<path d="M628.382 20.6211L539.654 108.065L518.58 131.256C518.238 131.622 517.787 131.868 517.294 131.957C516.802 132.045 516.294 131.971 515.847 131.747C515.399 131.522 515.036 131.158 514.811 130.709C514.586 130.26 514.511 129.751 514.598 129.256L520.511 90.1891L628.382 20.6211Z" fill="#3554B7"/>
<path d="M0.994525 242.698C0.873023 242.698 0.75252 242.676 0.639426 242.631C0.393121 242.536 0.194326 242.347 0.0866832 242.105C-0.0209598 241.863 -0.0286514 241.588 0.0652958 241.341C0.43367 240.381 0.811997 239.41 1.19365 238.464C1.2972 238.224 1.48965 238.035 1.72996 237.937C1.97027 237.838 2.23944 237.838 2.48009 237.935C2.72074 238.033 2.91384 238.222 3.01821 238.46C3.12259 238.699 3.12999 238.969 3.03884 239.214C2.66382 240.15 2.28881 241.107 1.92708 242.057C1.85447 242.247 1.72643 242.409 1.5599 242.523C1.39337 242.638 1.19621 242.698 0.994525 242.698ZM220.575 241.934H220.512C219.148 241.847 217.761 241.707 216.387 241.514C216.129 241.473 215.898 241.332 215.743 241.121C215.588 240.91 215.521 240.646 215.558 240.386C215.594 240.127 215.731 239.892 215.938 239.732C216.145 239.573 216.407 239.502 216.666 239.534C217.993 239.72 219.321 239.867 220.648 239.937C220.779 239.941 220.908 239.971 221.027 240.025C221.146 240.079 221.254 240.156 221.343 240.251C221.433 240.347 221.503 240.459 221.55 240.582C221.596 240.705 221.618 240.836 221.614 240.967C221.61 241.099 221.58 241.228 221.527 241.348C221.473 241.468 221.396 241.576 221.301 241.666C221.206 241.756 221.094 241.826 220.972 241.873C220.849 241.919 220.719 241.941 220.588 241.937L220.575 241.934ZM230.724 241.531C230.593 241.54 230.462 241.523 230.337 241.481C230.213 241.44 230.098 241.374 229.999 241.287C229.799 241.113 229.677 240.866 229.658 240.601C229.64 240.335 229.727 240.074 229.901 239.873C230.074 239.672 230.32 239.549 230.584 239.53C231.885 239.347 233.209 239.11 234.514 238.82C234.772 238.764 235.042 238.813 235.265 238.956C235.487 239.1 235.644 239.326 235.7 239.585C235.756 239.845 235.708 240.116 235.565 240.34C235.422 240.563 235.197 240.721 234.938 240.777C233.584 241.074 232.214 241.321 230.863 241.514C230.817 241.523 230.77 241.528 230.724 241.531ZM206.637 239.197C206.532 239.197 206.428 239.18 206.328 239.147C205.04 238.724 203.733 238.25 202.445 237.733C202.213 237.627 202.03 237.435 201.935 237.197C201.839 236.959 201.839 236.693 201.933 236.455C202.027 236.216 202.209 236.023 202.441 235.916C202.673 235.808 202.937 235.794 203.179 235.876C204.43 236.373 205.697 236.837 206.945 237.247C207.17 237.321 207.361 237.473 207.484 237.676C207.608 237.879 207.655 238.119 207.618 238.354C207.581 238.589 207.461 238.802 207.282 238.957C207.102 239.111 206.873 239.197 206.637 239.197ZM244.417 237.747C244.185 237.748 243.961 237.668 243.782 237.521C243.603 237.373 243.48 237.168 243.436 236.94C243.391 236.712 243.427 236.476 243.537 236.271C243.646 236.067 243.824 235.907 244.038 235.82C245.256 235.316 246.487 234.76 247.689 234.153C247.807 234.091 247.936 234.053 248.069 234.042C248.201 234.031 248.335 234.046 248.462 234.088C248.588 234.13 248.705 234.197 248.806 234.284C248.906 234.372 248.988 234.48 249.046 234.6C249.105 234.72 249.138 234.851 249.146 234.985C249.153 235.118 249.133 235.252 249.088 235.378C249.043 235.504 248.973 235.619 248.883 235.717C248.792 235.816 248.683 235.895 248.562 235.95C247.32 236.56 246.053 237.133 244.795 237.653C244.676 237.707 244.547 237.738 244.417 237.743V237.747ZM193.641 233.413C193.471 233.412 193.304 233.367 193.156 233.283C191.978 232.616 190.787 231.916 189.612 231.186C189.499 231.117 189.401 231.027 189.323 230.92C189.246 230.814 189.19 230.692 189.159 230.564C189.128 230.435 189.123 230.302 189.144 230.171C189.165 230.041 189.211 229.915 189.281 229.803C189.35 229.691 189.441 229.593 189.548 229.516C189.655 229.439 189.776 229.384 189.905 229.355C190.033 229.325 190.166 229.322 190.296 229.344C190.425 229.366 190.549 229.415 190.661 229.485C191.812 230.199 192.984 230.892 194.129 231.539C194.321 231.647 194.473 231.816 194.559 232.02C194.646 232.224 194.663 232.451 194.607 232.666C194.551 232.88 194.426 233.07 194.251 233.205C194.076 233.34 193.861 233.413 193.641 233.413ZM306.31 231.666C306.046 231.666 305.793 231.56 305.606 231.373C305.419 231.185 305.314 230.931 305.314 230.666C305.314 230.4 305.419 230.146 305.606 229.958C305.793 229.771 306.046 229.665 306.31 229.665C307.637 229.665 308.992 229.632 310.339 229.572C310.603 229.561 310.861 229.655 311.056 229.834C311.25 230.014 311.366 230.264 311.378 230.529C311.389 230.794 311.295 231.053 311.117 231.249C310.938 231.445 310.689 231.561 310.425 231.572C309.051 231.632 307.667 231.662 306.313 231.666H306.31ZM296.158 231.116C296.121 231.119 296.083 231.119 296.045 231.116C295.239 231.026 294.419 230.922 293.613 230.809C293.062 230.732 292.511 230.649 291.953 230.559C291.824 230.537 291.701 230.49 291.59 230.42C291.479 230.35 291.383 230.259 291.307 230.152C291.232 230.045 291.177 229.924 291.148 229.796C291.119 229.668 291.115 229.535 291.137 229.405C291.159 229.276 291.206 229.152 291.275 229.04C291.345 228.929 291.435 228.833 291.542 228.756C291.649 228.68 291.769 228.626 291.897 228.597C292.024 228.567 292.156 228.563 292.285 228.585C292.82 228.672 293.357 228.752 293.891 228.829C294.681 228.939 295.481 229.042 296.268 229.129C296.532 229.143 296.779 229.262 296.956 229.459C297.133 229.657 297.224 229.917 297.21 230.182C297.196 230.447 297.078 230.696 296.881 230.874C296.684 231.051 296.426 231.143 296.161 231.129L296.158 231.116ZM256.908 230.939C256.695 230.939 256.488 230.871 256.316 230.744C256.145 230.617 256.019 230.438 255.956 230.234C255.893 230.029 255.897 229.81 255.968 229.608C256.038 229.406 256.171 229.232 256.347 229.112C257.439 228.362 258.534 227.565 259.603 226.748C259.706 226.661 259.825 226.595 259.954 226.555C260.084 226.515 260.219 226.502 260.353 226.517C260.488 226.531 260.618 226.573 260.735 226.639C260.853 226.706 260.956 226.796 261.038 226.903C261.12 227.011 261.179 227.134 261.212 227.266C261.245 227.397 261.251 227.534 261.23 227.668C261.209 227.802 261.161 227.93 261.089 228.045C261.017 228.16 260.922 228.258 260.811 228.335C259.716 229.175 258.591 230.002 257.469 230.762C257.302 230.871 257.107 230.926 256.908 230.919V230.939ZM320.504 230.649C320.373 230.658 320.242 230.641 320.118 230.598C319.994 230.556 319.879 230.49 319.781 230.403C319.682 230.316 319.601 230.211 319.543 230.093C319.485 229.975 319.451 229.847 319.442 229.715C319.433 229.584 319.45 229.452 319.492 229.328C319.534 229.203 319.6 229.088 319.687 228.989C319.773 228.89 319.878 228.809 319.995 228.75C320.113 228.692 320.241 228.657 320.371 228.649C321.699 228.469 323.026 228.262 324.354 228.035C324.608 228.004 324.865 228.072 325.07 228.226C325.276 228.38 325.415 228.607 325.457 228.861C325.5 229.115 325.444 229.376 325.3 229.589C325.156 229.802 324.936 229.951 324.686 230.006C323.325 230.239 321.961 230.449 320.63 230.629C320.588 230.632 320.546 230.632 320.504 230.629V230.649ZM6.22477 230.519C6.07426 230.518 5.92577 230.484 5.79002 230.419C5.55317 230.303 5.37164 230.098 5.28518 229.848C5.19872 229.598 5.21438 229.324 5.32872 229.085C5.92277 227.852 6.53673 226.612 7.16064 225.418C7.21696 225.295 7.29753 225.185 7.39746 225.094C7.49739 225.004 7.61461 224.934 7.74202 224.89C7.86943 224.846 8.00438 224.829 8.13871 224.839C8.27304 224.849 8.40394 224.886 8.52351 224.949C8.64307 225.011 8.74881 225.097 8.83431 225.201C8.91981 225.306 8.98331 225.427 9.02096 225.557C9.0586 225.687 9.06961 225.823 9.05332 225.957C9.03703 226.092 8.99378 226.221 8.92618 226.338C8.31554 227.525 7.70822 228.745 7.12082 229.965C7.03556 230.128 6.90748 230.263 6.7506 230.358C6.59373 230.452 6.41411 230.501 6.23141 230.499L6.22477 230.519ZM282.196 228.275C282.101 228.275 282.006 228.261 281.914 228.232C280.607 227.845 279.289 227.418 277.995 226.962C277.872 226.918 277.758 226.85 277.661 226.762C277.564 226.674 277.484 226.568 277.428 226.45C277.372 226.331 277.339 226.202 277.332 226.071C277.325 225.94 277.344 225.809 277.388 225.685C277.431 225.561 277.499 225.447 277.586 225.349C277.674 225.251 277.779 225.172 277.897 225.115C278.015 225.059 278.143 225.026 278.274 225.019C278.405 225.012 278.535 225.031 278.659 225.075C279.92 225.518 281.207 225.935 282.482 226.315C282.712 226.382 282.911 226.531 283.04 226.734C283.17 226.937 283.223 227.18 283.188 227.418C283.154 227.657 283.035 227.875 282.854 228.032C282.672 228.19 282.44 228.276 282.2 228.275H282.196ZM334.472 227.942C334.23 227.94 333.996 227.85 333.816 227.688C333.635 227.526 333.519 227.303 333.49 227.061C333.461 226.819 333.521 226.575 333.659 226.375C333.796 226.174 334.002 226.031 334.237 225.972C335.514 225.658 336.832 225.305 338.153 224.971C338.28 224.934 338.413 224.923 338.544 224.938C338.675 224.954 338.802 224.995 338.918 225.06C339.033 225.125 339.134 225.212 339.215 225.317C339.297 225.422 339.356 225.542 339.391 225.67C339.426 225.798 339.434 225.932 339.417 226.064C339.4 226.196 339.356 226.322 339.289 226.437C339.223 226.552 339.134 226.652 339.028 226.732C338.922 226.811 338.802 226.869 338.674 226.902C337.346 227.265 336.019 227.608 334.711 227.929C334.636 227.936 334.56 227.935 334.486 227.925L334.472 227.942ZM181.75 225.531C181.533 225.531 181.322 225.46 181.149 225.328C180.084 224.515 178.999 223.661 177.92 222.784C177.728 222.614 177.609 222.375 177.588 222.118C177.567 221.862 177.645 221.607 177.806 221.407C177.967 221.206 178.199 221.076 178.454 221.044C178.708 221.011 178.965 221.078 179.171 221.231C180.233 222.091 181.302 222.934 182.351 223.734C182.517 223.861 182.639 224.037 182.7 224.237C182.762 224.437 182.759 224.651 182.693 224.85C182.626 225.048 182.5 225.221 182.33 225.343C182.161 225.465 181.958 225.531 181.75 225.531ZM348.159 223.985C347.922 223.984 347.693 223.899 347.514 223.744C347.334 223.59 347.215 223.376 347.178 223.141C347.14 222.907 347.188 222.666 347.311 222.463C347.434 222.261 347.625 222.108 347.85 222.034C349.098 221.624 350.389 221.184 351.69 220.734C351.939 220.646 352.213 220.66 352.452 220.775C352.691 220.89 352.874 221.095 352.962 221.346C353.05 221.596 353.036 221.872 352.921 222.112C352.807 222.352 352.603 222.536 352.353 222.624C351.026 223.081 349.738 223.521 348.48 223.935C348.38 223.961 348.276 223.973 348.172 223.968L348.159 223.985ZM268.955 223.068C268.802 223.068 268.651 223.032 268.514 222.964C267.286 222.354 266.061 221.707 264.863 221.037C264.749 220.973 264.648 220.887 264.567 220.784C264.486 220.681 264.426 220.563 264.391 220.436C264.355 220.31 264.344 220.177 264.36 220.047C264.375 219.916 264.416 219.79 264.48 219.675C264.544 219.561 264.629 219.46 264.732 219.378C264.835 219.297 264.952 219.237 265.078 219.201C265.204 219.165 265.336 219.155 265.466 219.17C265.596 219.185 265.721 219.226 265.835 219.29C266.293 219.546 266.756 219.799 267.223 220.051C268.148 219.13 269.064 218.174 269.947 217.21C270.128 217.027 270.373 216.922 270.63 216.916C270.887 216.91 271.136 217.004 271.326 217.178C271.515 217.353 271.63 217.594 271.646 217.851C271.663 218.109 271.58 218.363 271.414 218.56C270.657 219.39 269.874 220.227 269.091 221.014L269.403 221.171C269.604 221.271 269.766 221.436 269.862 221.64C269.958 221.845 269.983 222.075 269.932 222.295C269.88 222.515 269.757 222.711 269.581 222.851C269.405 222.992 269.186 223.068 268.962 223.068H268.955ZM361.566 219.157C361.333 219.157 361.108 219.076 360.929 218.926C360.75 218.777 360.629 218.57 360.586 218.34C360.544 218.11 360.583 217.873 360.696 217.669C360.81 217.465 360.991 217.307 361.208 217.223C362.473 216.732 363.733 216.237 364.988 215.737C365.11 215.682 365.242 215.653 365.376 215.652C365.51 215.65 365.642 215.675 365.766 215.726C365.89 215.777 366.002 215.852 366.096 215.948C366.191 216.043 366.265 216.157 366.314 216.281C366.364 216.406 366.388 216.54 366.385 216.674C366.382 216.808 366.352 216.941 366.297 217.063C366.242 217.186 366.163 217.296 366.064 217.387C365.966 217.478 365.85 217.548 365.724 217.593C364.463 218.096 363.197 218.595 361.924 219.09C361.813 219.126 361.696 219.143 361.579 219.14L361.566 219.157ZM13.0513 217.957C12.866 217.957 12.6844 217.905 12.5269 217.807C12.415 217.738 12.3176 217.649 12.2403 217.542C12.163 217.436 12.1073 217.316 12.0765 217.188C12.0457 217.06 12.0403 216.927 12.0606 216.797C12.081 216.667 12.1267 216.542 12.1951 216.43C12.9186 215.26 13.6653 214.096 14.412 212.966C14.4843 212.857 14.5774 212.763 14.6859 212.689C14.7945 212.616 14.9163 212.565 15.0445 212.539C15.1727 212.513 15.3047 212.512 15.4331 212.538C15.5614 212.563 15.6836 212.613 15.7925 212.686C15.9015 212.759 15.9951 212.852 16.0681 212.961C16.1411 213.07 16.192 213.193 16.2178 213.321C16.2437 213.45 16.2441 213.583 16.219 213.712C16.1938 213.841 16.1436 213.963 16.0713 214.073C15.3346 215.183 14.6011 216.33 13.8876 217.483C13.7992 217.627 13.6762 217.745 13.53 217.828C13.3838 217.911 13.2191 217.955 13.0513 217.957ZM170.858 216.29C170.612 216.288 170.375 216.194 170.194 216.027C169.238 215.15 168.256 214.236 167.207 213.239C167.015 213.058 166.902 212.807 166.893 212.541C166.885 212.276 166.982 212.018 167.163 211.824C167.344 211.631 167.594 211.517 167.858 211.509C168.122 211.5 168.379 211.597 168.571 211.779C169.623 212.779 170.596 213.68 171.558 214.55C171.707 214.685 171.811 214.862 171.857 215.058C171.904 215.254 171.89 215.46 171.818 215.648C171.747 215.836 171.62 215.998 171.455 216.112C171.29 216.227 171.095 216.289 170.894 216.29H170.858ZM256.792 215.623C256.581 215.623 256.375 215.555 256.205 215.43C255.099 214.62 254.001 213.763 252.939 212.909C252.837 212.827 252.753 212.725 252.69 212.61C252.627 212.494 252.588 212.368 252.574 212.237C252.56 212.106 252.572 211.974 252.609 211.848C252.646 211.722 252.707 211.605 252.79 211.502C252.872 211.4 252.973 211.315 253.088 211.252C253.203 211.19 253.329 211.15 253.459 211.136C253.589 211.122 253.72 211.134 253.846 211.171C253.971 211.208 254.088 211.27 254.19 211.352C255.226 212.196 256.297 213.019 257.376 213.813C257.546 213.937 257.673 214.112 257.739 214.313C257.804 214.514 257.804 214.73 257.739 214.931C257.674 215.132 257.548 215.308 257.378 215.432C257.207 215.556 257.002 215.623 256.792 215.623ZM374.788 213.776C374.557 213.777 374.334 213.697 374.155 213.551C373.977 213.404 373.854 213.2 373.809 212.973C373.764 212.746 373.798 212.51 373.906 212.306C374.014 212.102 374.19 211.941 374.403 211.853C375.654 211.329 376.898 210.799 378.146 210.266C378.267 210.212 378.397 210.183 378.529 210.18C378.661 210.178 378.792 210.201 378.915 210.25C379.037 210.299 379.149 210.371 379.244 210.464C379.338 210.556 379.413 210.667 379.465 210.788C379.517 210.91 379.544 211.041 379.545 211.174C379.545 211.307 379.52 211.438 379.47 211.56C379.42 211.683 379.346 211.794 379.253 211.888C379.159 211.982 379.048 212.056 378.926 212.106C377.678 212.639 376.427 213.171 375.173 213.7C375.051 213.75 374.92 213.777 374.788 213.776ZM277.119 210.952C276.909 210.952 276.705 210.886 276.535 210.762C276.429 210.685 276.339 210.588 276.271 210.476C276.202 210.364 276.156 210.24 276.136 210.11C276.115 209.98 276.12 209.848 276.15 209.72C276.181 209.592 276.236 209.472 276.312 209.365C277.092 208.285 277.859 207.165 278.596 206.032C278.749 205.83 278.972 205.695 279.22 205.652C279.469 205.61 279.724 205.664 279.934 205.803C280.145 205.942 280.295 206.156 280.355 206.402C280.414 206.648 280.379 206.908 280.255 207.128C279.502 208.282 278.715 209.425 277.932 210.532C277.839 210.663 277.717 210.769 277.575 210.842C277.433 210.916 277.275 210.953 277.116 210.952H277.119ZM387.863 208.105C387.635 208.105 387.414 208.026 387.237 207.882C387.06 207.738 386.937 207.537 386.89 207.313C386.843 207.089 386.873 206.855 386.977 206.651C387.08 206.447 387.25 206.285 387.458 206.192C388.697 205.638 389.933 205.083 391.165 204.525C391.406 204.415 391.68 204.406 391.928 204.499C392.175 204.593 392.375 204.781 392.485 205.023C392.594 205.265 392.603 205.54 392.51 205.789C392.417 206.037 392.229 206.239 391.988 206.348C390.749 206.908 389.509 207.464 388.268 208.015C388.14 208.075 388.001 208.106 387.86 208.105H387.863ZM160.534 206.458C160.276 206.458 160.029 206.358 159.843 206.178L156.913 203.344C156.814 203.255 156.734 203.146 156.678 203.025C156.622 202.903 156.591 202.772 156.586 202.639C156.582 202.505 156.604 202.372 156.651 202.247C156.698 202.122 156.77 202.008 156.862 201.911C156.955 201.815 157.065 201.738 157.187 201.685C157.309 201.632 157.441 201.604 157.574 201.603C157.707 201.602 157.839 201.628 157.962 201.679C158.085 201.73 158.197 201.806 158.29 201.901C159.286 202.844 160.248 203.791 161.227 204.738C161.37 204.877 161.469 205.055 161.51 205.25C161.551 205.445 161.534 205.649 161.459 205.834C161.384 206.019 161.256 206.177 161.092 206.288C160.927 206.4 160.732 206.459 160.534 206.458ZM21.2617 206.275C21.036 206.274 20.8172 206.197 20.6411 206.055C20.436 205.889 20.3048 205.648 20.2762 205.385C20.2476 205.122 20.3239 204.858 20.4885 204.651C21.3447 203.578 22.2275 202.514 23.1169 201.484C23.2011 201.38 23.3052 201.295 23.4231 201.232C23.5409 201.169 23.6701 201.131 23.8029 201.12C23.9358 201.108 24.0695 201.123 24.1963 201.165C24.3231 201.206 24.4404 201.273 24.5411 201.361C24.6418 201.448 24.7239 201.555 24.7826 201.676C24.8413 201.796 24.8754 201.927 24.8827 202.061C24.8901 202.194 24.8707 202.328 24.8256 202.454C24.7805 202.58 24.7107 202.696 24.6202 202.794C23.7474 203.795 22.8812 204.851 22.0416 205.902C21.9475 206.019 21.8282 206.114 21.6926 206.178C21.557 206.243 21.4085 206.276 21.2584 206.275H21.2617ZM246.083 206.248C245.948 206.249 245.815 206.222 245.691 206.169C245.567 206.116 245.456 206.039 245.362 205.942C244.413 204.941 243.477 203.918 242.585 202.884C242.412 202.684 242.325 202.422 242.344 202.157C242.363 201.893 242.486 201.646 242.686 201.473C242.886 201.299 243.146 201.212 243.41 201.231C243.673 201.25 243.918 201.373 244.091 201.574C244.961 202.574 245.87 203.575 246.799 204.555C246.89 204.65 246.962 204.762 247.009 204.884C247.057 205.007 247.08 205.138 247.077 205.269C247.075 205.401 247.046 205.531 246.993 205.651C246.94 205.772 246.864 205.881 246.77 205.972C246.584 206.15 246.336 206.249 246.079 206.248H246.083ZM400.816 202.151C400.589 202.152 400.368 202.075 400.191 201.933C400.013 201.791 399.889 201.592 399.84 201.369C399.79 201.147 399.818 200.914 399.918 200.709C400.018 200.504 400.185 200.34 400.391 200.244C401.615 199.664 402.832 199.08 404.042 198.494C404.16 198.437 404.288 198.404 404.419 198.397C404.549 198.39 404.68 198.409 404.804 198.453C404.927 198.497 405.041 198.565 405.138 198.653C405.235 198.74 405.315 198.847 405.371 198.965C405.427 199.084 405.46 199.213 405.467 199.344C405.474 199.475 405.455 199.607 405.412 199.731C405.368 199.855 405.3 199.969 405.213 200.067C405.125 200.164 405.02 200.244 404.901 200.301C403.676 200.887 402.449 201.472 401.221 202.054C401.094 202.116 400.954 202.149 400.813 202.151H400.816ZM284.52 198.75C284.349 198.75 284.182 198.706 284.034 198.622C283.885 198.539 283.761 198.418 283.672 198.273C283.583 198.127 283.533 197.961 283.526 197.79C283.519 197.619 283.556 197.449 283.633 197.297C284.237 196.1 284.822 194.873 285.376 193.65C285.427 193.526 285.502 193.414 285.598 193.32C285.693 193.226 285.806 193.152 285.93 193.103C286.054 193.054 286.187 193.03 286.321 193.034C286.454 193.037 286.585 193.067 286.707 193.123C286.828 193.178 286.938 193.258 287.028 193.356C287.118 193.455 287.188 193.571 287.233 193.697C287.278 193.823 287.297 193.958 287.289 194.091C287.281 194.225 287.247 194.356 287.188 194.476C286.624 195.727 286.026 196.98 285.409 198.2C285.326 198.366 285.199 198.505 285.042 198.602C284.885 198.699 284.704 198.75 284.52 198.75ZM150.173 196.64C149.927 196.639 149.691 196.546 149.509 196.38C148.477 195.44 147.458 194.533 146.482 193.68C146.379 193.595 146.294 193.49 146.231 193.372C146.169 193.254 146.131 193.124 146.119 192.99C146.108 192.857 146.123 192.723 146.164 192.595C146.206 192.468 146.272 192.35 146.359 192.249C146.447 192.148 146.553 192.065 146.673 192.006C146.793 191.947 146.923 191.913 147.056 191.906C147.189 191.898 147.322 191.918 147.448 191.963C147.573 192.008 147.689 192.078 147.786 192.169C148.782 193.033 149.804 193.95 150.846 194.896C150.996 195.032 151.101 195.209 151.148 195.406C151.195 195.602 151.182 195.808 151.11 195.997C151.038 196.186 150.911 196.348 150.746 196.463C150.58 196.578 150.384 196.64 150.183 196.64H150.173ZM413.616 195.913C413.391 195.914 413.173 195.838 412.996 195.698C412.819 195.558 412.695 195.362 412.643 195.142C412.592 194.922 412.616 194.691 412.712 194.487C412.808 194.282 412.97 194.116 413.172 194.016C414.382 193.414 415.592 192.805 416.802 192.189C416.919 192.125 417.048 192.085 417.181 192.072C417.313 192.059 417.447 192.073 417.574 192.112C417.702 192.152 417.82 192.217 417.922 192.303C418.023 192.39 418.107 192.496 418.167 192.615C418.227 192.735 418.263 192.865 418.272 192.999C418.281 193.132 418.264 193.267 418.22 193.393C418.177 193.52 418.109 193.636 418.019 193.736C417.93 193.836 417.822 193.916 417.702 193.973C416.491 194.589 415.275 195.201 414.051 195.81C413.916 195.877 413.767 195.912 413.616 195.913ZM30.8892 195.77C30.6892 195.771 30.4937 195.711 30.3281 195.598C30.1625 195.486 30.0344 195.325 29.9606 195.139C29.8869 194.952 29.8708 194.747 29.9145 194.551C29.9581 194.355 30.0596 194.177 30.2056 194.04C31.2012 193.096 32.2333 192.166 33.2588 191.276C33.4595 191.11 33.7168 191.03 33.9756 191.052C34.2345 191.075 34.4744 191.198 34.6442 191.395C34.8139 191.593 34.9001 191.849 34.8844 192.11C34.8686 192.37 34.7521 192.614 34.5597 192.789C33.5641 193.66 32.5486 194.573 31.5729 195.497C31.3914 195.669 31.1522 195.766 30.9025 195.77H30.8892ZM237.195 195.08C237.029 195.08 236.866 195.039 236.72 194.96C236.574 194.881 236.45 194.766 236.359 194.626C235.605 193.473 234.879 192.293 234.198 191.099C234.066 190.869 234.031 190.596 234.099 190.34C234.168 190.083 234.335 189.865 234.563 189.732C234.792 189.6 235.064 189.564 235.319 189.633C235.575 189.701 235.792 189.869 235.924 190.099C236.588 191.253 237.295 192.409 238.025 193.533C238.123 193.684 238.178 193.858 238.186 194.038C238.193 194.217 238.153 194.396 238.068 194.554C237.983 194.712 237.857 194.845 237.703 194.937C237.55 195.03 237.374 195.079 237.195 195.08ZM426.297 189.412C426.074 189.413 425.857 189.339 425.681 189.201C425.505 189.063 425.38 188.87 425.326 188.652C425.273 188.435 425.293 188.205 425.385 188.001C425.477 187.796 425.634 187.629 425.832 187.525C427.032 186.892 428.228 186.256 429.423 185.618C429.539 185.55 429.667 185.506 429.8 185.488C429.934 185.471 430.069 185.481 430.198 185.518C430.327 185.554 430.448 185.617 430.552 185.701C430.657 185.786 430.743 185.891 430.807 186.01C430.87 186.129 430.908 186.259 430.92 186.394C430.931 186.528 430.916 186.664 430.874 186.792C430.832 186.92 430.765 187.038 430.677 187.14C430.588 187.241 430.48 187.323 430.359 187.382C429.162 188.024 427.962 188.662 426.758 189.296C426.619 189.365 426.466 189.401 426.31 189.399L426.297 189.412ZM139.231 187.499C139.016 187.499 138.806 187.428 138.634 187.299C137.542 186.475 136.443 185.678 135.368 184.928C135.26 184.853 135.167 184.757 135.096 184.646C135.024 184.535 134.975 184.411 134.952 184.281C134.928 184.151 134.93 184.018 134.957 183.888C134.985 183.759 135.038 183.637 135.112 183.528C135.187 183.419 135.283 183.326 135.393 183.254C135.504 183.183 135.627 183.133 135.756 183.11C135.886 183.086 136.019 183.088 136.147 183.115C136.276 183.143 136.398 183.196 136.506 183.271C137.601 184.035 138.72 184.848 139.825 185.685C139.992 185.811 140.116 185.986 140.178 186.187C140.24 186.387 140.238 186.602 140.172 186.801C140.106 187 139.979 187.174 139.81 187.296C139.64 187.419 139.437 187.485 139.228 187.485L139.231 187.499ZM41.9703 186.808C41.7583 186.808 41.5521 186.739 41.3818 186.612C41.2114 186.485 41.0858 186.307 41.0233 186.104C40.9607 185.9 40.9644 185.682 41.0338 185.481C41.1033 185.279 41.2349 185.106 41.4094 184.985C42.5378 184.208 43.6993 183.448 44.8542 182.728C45.0786 182.592 45.3474 182.55 45.6022 182.611C45.8571 182.673 46.0775 182.833 46.2156 183.057C46.3536 183.281 46.3982 183.55 46.3397 183.807C46.2812 184.064 46.1242 184.287 45.9029 184.428C44.7713 185.132 43.6396 185.875 42.5345 186.635C42.3667 186.744 42.1701 186.8 41.9703 186.795V186.808ZM289.975 185.562C289.87 185.562 289.766 185.544 289.667 185.508C289.416 185.426 289.208 185.247 289.089 185.011C288.969 184.774 288.948 184.5 289.03 184.248C289.448 182.974 289.843 181.671 290.204 180.377C290.24 180.251 290.3 180.133 290.381 180.029C290.462 179.926 290.562 179.84 290.677 179.776C290.791 179.711 290.916 179.67 291.046 179.655C291.176 179.64 291.308 179.65 291.434 179.686C291.56 179.721 291.678 179.782 291.78 179.863C291.883 179.944 291.969 180.045 292.033 180.16C292.097 180.275 292.138 180.401 292.153 180.531C292.169 180.662 292.158 180.794 292.123 180.921C291.751 182.254 291.349 183.571 290.921 184.871C290.854 185.069 290.726 185.241 290.557 185.363C290.387 185.484 290.184 185.549 289.975 185.548V185.562ZM438.838 182.608C438.617 182.608 438.402 182.535 438.227 182.399C438.052 182.263 437.927 182.072 437.872 181.857C437.817 181.642 437.834 181.414 437.922 181.21C438.01 181.006 438.163 180.838 438.357 180.731C439.543 180.064 440.726 179.397 441.905 178.73C442.135 178.604 442.405 178.573 442.658 178.645C442.91 178.718 443.123 178.887 443.252 179.117C443.38 179.347 443.414 179.618 443.344 179.872C443.274 180.126 443.108 180.343 442.88 180.474C441.697 181.141 440.51 181.808 439.319 182.474C439.173 182.56 439.007 182.606 438.838 182.608ZM230.631 182.411C230.432 182.412 230.237 182.352 230.072 182.24C229.907 182.129 229.779 181.97 229.705 181.784C229.197 180.504 228.709 179.194 228.281 177.894C228.24 177.769 228.223 177.638 228.232 177.506C228.241 177.375 228.275 177.247 228.334 177.13C228.392 177.012 228.473 176.907 228.571 176.821C228.67 176.735 228.784 176.669 228.908 176.627C229.032 176.585 229.163 176.568 229.294 176.577C229.424 176.586 229.552 176.621 229.669 176.679C229.786 176.738 229.89 176.819 229.976 176.918C230.062 177.017 230.128 177.132 230.169 177.257C230.591 178.524 231.059 179.794 231.553 181.041C231.651 181.287 231.648 181.562 231.544 181.806C231.44 182.05 231.244 182.242 230.999 182.341C230.884 182.386 230.761 182.41 230.637 182.411H230.631ZM127.214 179.861C127.062 179.86 126.912 179.825 126.776 179.757C125.594 179.171 124.367 178.604 123.125 178.09C122.882 177.987 122.69 177.791 122.59 177.545C122.491 177.299 122.493 177.023 122.596 176.778C122.699 176.534 122.894 176.341 123.139 176.241C123.384 176.141 123.659 176.143 123.902 176.247C125.176 176.79 126.437 177.374 127.655 177.977C127.857 178.077 128.019 178.243 128.115 178.447C128.211 178.652 128.235 178.883 128.184 179.103C128.132 179.323 128.008 179.519 127.831 179.659C127.654 179.799 127.436 179.875 127.211 179.874L127.214 179.861ZM54.3291 179.707C54.1023 179.708 53.8821 179.63 53.7051 179.488C53.5281 179.345 53.4048 179.146 53.3557 178.924C53.3065 178.701 53.3344 178.469 53.4348 178.265C53.5352 178.06 53.702 177.896 53.9076 177.8C55.1455 177.22 56.4132 176.663 57.6776 176.133C57.7995 176.078 57.9312 176.048 58.0649 176.045C58.1985 176.042 58.3314 176.066 58.4556 176.116C58.5798 176.166 58.6927 176.24 58.7877 176.335C58.8826 176.429 58.9576 176.542 59.0082 176.667C59.0589 176.791 59.084 176.924 59.0823 177.058C59.0805 177.193 59.0518 177.325 58.9979 177.448C58.9441 177.571 58.8661 177.682 58.7687 177.774C58.6713 177.866 58.5564 177.937 58.431 177.984C57.1997 178.494 55.9585 179.037 54.7505 179.604C54.6163 179.671 54.4688 179.706 54.3191 179.707H54.3291ZM451.244 175.543C451.025 175.543 450.812 175.47 450.639 175.337C450.466 175.203 450.341 175.016 450.284 174.804C450.227 174.592 450.241 174.367 450.324 174.164C450.406 173.961 450.554 173.79 450.742 173.68C451.911 172.993 453.079 172.304 454.247 171.613C454.36 171.533 454.488 171.478 454.623 171.45C454.759 171.423 454.898 171.424 455.033 171.454C455.168 171.484 455.295 171.541 455.406 171.623C455.518 171.705 455.611 171.809 455.681 171.929C455.75 172.049 455.794 172.182 455.809 172.32C455.824 172.458 455.811 172.597 455.77 172.729C455.728 172.862 455.66 172.984 455.57 173.088C455.479 173.193 455.367 173.277 455.243 173.336C454.07 174.03 452.898 174.72 451.728 175.407C451.577 175.495 451.405 175.542 451.23 175.543H451.244ZM113.906 174.796C113.815 174.797 113.725 174.785 113.637 174.76C112.36 174.403 111.045 174.07 109.741 173.76C109.61 173.734 109.486 173.683 109.375 173.608C109.264 173.533 109.17 173.437 109.097 173.325C109.024 173.213 108.974 173.087 108.95 172.955C108.926 172.823 108.929 172.688 108.959 172.557C108.988 172.427 109.043 172.303 109.121 172.195C109.199 172.086 109.297 171.994 109.411 171.924C109.525 171.854 109.652 171.808 109.784 171.788C109.916 171.769 110.05 171.776 110.179 171.809C111.507 172.113 112.861 172.453 114.162 172.809C114.393 172.874 114.594 173.021 114.726 173.223C114.858 173.425 114.913 173.668 114.881 173.908C114.849 174.147 114.731 174.367 114.55 174.526C114.369 174.685 114.137 174.773 113.896 174.773L113.906 174.796ZM67.6635 174.77C67.4233 174.769 67.1915 174.68 67.0111 174.521C66.8306 174.361 66.7136 174.142 66.6817 173.903C66.6497 173.663 66.705 173.421 66.8373 173.219C66.9695 173.018 67.1699 172.871 67.4014 172.806C68.7288 172.443 70.0563 172.103 71.3838 171.806C71.5129 171.772 71.6474 171.765 71.7793 171.785C71.9112 171.805 72.0379 171.851 72.1517 171.921C72.2656 171.99 72.3643 172.082 72.442 172.191C72.5198 172.3 72.575 172.423 72.6043 172.554C72.6337 172.685 72.6366 172.82 72.6129 172.952C72.5892 173.084 72.5394 173.21 72.4664 173.322C72.3934 173.434 72.2988 173.53 72.188 173.605C72.0773 173.679 71.9528 173.731 71.8219 173.756C70.5143 174.053 69.2034 174.383 67.9191 174.736C67.8359 174.76 67.7499 174.771 67.6635 174.77ZM99.9278 172.139H99.8216C98.4941 171.999 97.1434 171.889 95.8126 171.806C95.6821 171.798 95.5543 171.765 95.4367 171.708C95.319 171.65 95.2137 171.57 95.1268 171.472C95.0399 171.374 94.9731 171.26 94.9302 171.136C94.8873 171.012 94.8691 170.88 94.8767 170.749C94.8844 170.618 94.9176 170.49 94.9746 170.371C95.0316 170.253 95.1112 170.148 95.2089 170.06C95.3066 169.973 95.4205 169.906 95.544 169.863C95.6675 169.82 95.7982 169.801 95.9288 169.809C97.2927 169.889 98.6733 170.002 100.031 170.142C100.295 170.156 100.543 170.275 100.72 170.472C100.897 170.669 100.988 170.929 100.975 171.194C100.961 171.46 100.843 171.708 100.647 171.886C100.45 172.064 100.192 172.156 99.9278 172.143V172.139ZM81.6451 172.139C81.3811 172.153 81.1224 172.061 80.9261 171.883C80.7297 171.705 80.6117 171.456 80.5981 171.191C80.5845 170.926 80.6763 170.666 80.8533 170.469C81.0304 170.271 81.2782 170.153 81.5423 170.139C82.9029 169.999 84.2835 169.886 85.6442 169.806C85.9082 169.791 86.1674 169.882 86.3647 170.059C86.562 170.235 86.6812 170.484 86.6962 170.749C86.7112 171.014 86.6206 171.275 86.4445 171.473C86.2683 171.671 86.021 171.791 85.757 171.806C84.4295 171.883 83.0755 171.993 81.748 172.139H81.6451ZM293.397 171.669C293.341 171.674 293.284 171.674 293.228 171.669C293.099 171.648 292.975 171.6 292.864 171.531C292.753 171.461 292.657 171.37 292.582 171.263C292.506 171.155 292.452 171.034 292.422 170.906C292.393 170.778 292.389 170.645 292.411 170.516C292.637 169.182 292.833 167.849 292.999 166.515C293.032 166.25 293.168 166.009 293.378 165.845C293.482 165.763 293.601 165.703 293.728 165.668C293.855 165.633 293.988 165.624 294.119 165.64C294.25 165.656 294.376 165.699 294.49 165.764C294.605 165.829 294.705 165.917 294.786 166.021C294.867 166.126 294.927 166.245 294.962 166.373C294.997 166.501 295.006 166.634 294.99 166.765C294.817 168.125 294.618 169.499 294.389 170.849C294.347 171.082 294.224 171.291 294.042 171.442C293.861 171.592 293.632 171.672 293.397 171.669ZM226.658 168.696C226.426 168.696 226.202 168.615 226.023 168.466C225.844 168.318 225.723 168.111 225.679 167.882C225.427 166.548 225.205 165.155 225.016 163.795C224.998 163.664 225.006 163.532 225.04 163.405C225.073 163.278 225.132 163.159 225.211 163.054C225.29 162.95 225.389 162.862 225.502 162.796C225.616 162.73 225.74 162.687 225.87 162.67C226 162.652 226.132 162.66 226.258 162.694C226.384 162.728 226.503 162.786 226.607 162.866C226.711 162.945 226.798 163.045 226.864 163.159C226.93 163.272 226.973 163.398 226.99 163.528C227.166 164.862 227.382 166.195 227.631 167.509C227.655 167.638 227.654 167.771 227.628 167.899C227.601 168.028 227.549 168.15 227.476 168.259C227.402 168.368 227.308 168.461 227.198 168.533C227.089 168.605 226.966 168.654 226.838 168.679C226.778 168.689 226.718 168.694 226.658 168.696ZM463.46 168.205C463.243 168.205 463.033 168.133 462.861 168.002C462.689 167.871 462.564 167.687 462.505 167.478C462.446 167.269 462.457 167.046 462.535 166.843C462.613 166.641 462.755 166.47 462.939 166.355C464.093 165.646 465.246 164.932 466.397 164.211C466.508 164.141 466.632 164.092 466.762 164.07C466.891 164.048 467.024 164.051 467.153 164.081C467.281 164.11 467.402 164.165 467.509 164.242C467.616 164.319 467.707 164.417 467.777 164.529C467.846 164.641 467.892 164.767 467.913 164.897C467.934 165.028 467.929 165.161 467.898 165.29C467.867 165.418 467.812 165.54 467.734 165.646C467.656 165.753 467.558 165.843 467.445 165.912C466.293 166.632 465.137 167.347 463.977 168.059C463.821 168.154 463.642 168.205 463.46 168.205ZM475.523 160.604C475.307 160.605 475.097 160.536 474.923 160.407C474.75 160.277 474.623 160.095 474.562 159.887C474.501 159.679 474.509 159.456 474.585 159.253C474.66 159.05 474.8 158.877 474.982 158.761C476.124 158.027 477.261 157.288 478.394 156.544C478.613 156.423 478.87 156.391 479.112 156.452C479.354 156.513 479.565 156.663 479.702 156.873C479.839 157.083 479.893 157.337 479.852 157.585C479.811 157.833 479.679 158.056 479.482 158.21C478.343 158.955 477.202 159.696 476.061 160.434C475.901 160.542 475.715 160.601 475.523 160.604ZM294.708 157.437H294.691C294.43 157.433 294.181 157.325 293.998 157.138C293.815 156.951 293.712 156.699 293.712 156.437C293.712 155.91 293.712 155.387 293.712 154.86C293.712 154.043 293.712 153.213 293.679 152.393C293.676 152.261 293.698 152.131 293.745 152.008C293.791 151.885 293.862 151.773 293.952 151.678C294.042 151.582 294.15 151.506 294.269 151.452C294.389 151.399 294.517 151.369 294.648 151.366C294.779 151.362 294.909 151.385 295.031 151.432C295.153 151.479 295.265 151.55 295.36 151.64C295.455 151.73 295.531 151.839 295.584 151.959C295.638 152.079 295.667 152.208 295.67 152.339C295.694 153.176 295.703 154.006 295.703 154.86C295.703 155.397 295.703 155.933 295.703 156.47C295.695 156.73 295.586 156.976 295.4 157.156C295.215 157.336 294.966 157.437 294.708 157.437ZM225.331 154.47C225.067 154.47 224.814 154.364 224.627 154.177C224.44 153.989 224.335 153.735 224.335 153.47C224.335 152.096 224.375 150.703 224.448 149.329C224.455 149.198 224.488 149.069 224.544 148.95C224.601 148.832 224.68 148.725 224.777 148.637C224.875 148.549 224.988 148.482 225.112 148.438C225.235 148.394 225.366 148.375 225.497 148.382C225.628 148.389 225.756 148.422 225.874 148.479C225.992 148.535 226.098 148.615 226.185 148.713C226.273 148.811 226.34 148.925 226.384 149.049C226.427 149.173 226.446 149.304 226.439 149.436C226.366 150.769 226.33 152.129 226.33 153.47C226.33 153.601 226.304 153.732 226.254 153.853C226.203 153.975 226.13 154.085 226.037 154.178C225.944 154.271 225.834 154.345 225.713 154.395C225.592 154.445 225.462 154.47 225.331 154.47ZM487.417 152.733C487.205 152.732 486.998 152.663 486.827 152.536C486.656 152.409 486.53 152.23 486.468 152.026C486.406 151.822 486.41 151.603 486.48 151.401C486.551 151.2 486.684 151.026 486.86 150.906C487.981 150.146 489.102 149.381 490.221 148.612C490.329 148.531 490.452 148.473 490.582 148.44C490.713 148.408 490.849 148.403 490.982 148.425C491.114 148.447 491.241 148.496 491.355 148.569C491.468 148.641 491.566 148.736 491.642 148.848C491.717 148.96 491.77 149.085 491.796 149.218C491.822 149.351 491.821 149.487 491.793 149.619C491.765 149.751 491.711 149.877 491.634 149.987C491.556 150.098 491.458 150.191 491.343 150.262C490.224 151.034 489.101 151.801 487.975 152.563C487.81 152.674 487.616 152.733 487.417 152.733ZM499.135 144.602C498.924 144.601 498.718 144.534 498.548 144.408C498.377 144.283 498.251 144.106 498.187 143.904C498.123 143.702 498.125 143.484 498.192 143.283C498.259 143.082 498.389 142.907 498.561 142.785C499.668 142.002 500.774 141.213 501.88 140.418C502.095 140.267 502.36 140.208 502.618 140.253C502.876 140.297 503.107 140.442 503.259 140.656C503.411 140.87 503.474 141.136 503.432 141.396C503.391 141.656 503.249 141.889 503.038 142.044C501.932 142.838 500.826 143.629 499.72 144.418C499.549 144.539 499.344 144.604 499.135 144.602ZM293.855 143.168C293.613 143.17 293.378 143.084 293.195 142.925C293.012 142.766 292.892 142.545 292.859 142.305C292.674 140.971 292.458 139.637 292.216 138.304C292.17 138.044 292.228 137.776 292.378 137.559C292.528 137.342 292.757 137.194 293.015 137.146C293.273 137.098 293.54 137.154 293.757 137.303C293.974 137.452 294.124 137.681 294.174 137.94C294.422 139.274 294.642 140.658 294.837 142.021C294.873 142.284 294.804 142.55 294.645 142.761C294.485 142.972 294.249 143.112 293.988 143.148L293.855 143.168ZM226.662 140.244C226.6 140.249 226.538 140.249 226.476 140.244C226.347 140.22 226.225 140.17 226.115 140.098C226.006 140.026 225.911 139.933 225.838 139.824C225.764 139.716 225.712 139.593 225.686 139.465C225.659 139.336 225.658 139.203 225.683 139.074C225.938 137.74 226.233 136.36 226.559 135.03C226.59 134.902 226.646 134.782 226.723 134.676C226.801 134.57 226.898 134.481 227.01 134.413C227.122 134.345 227.246 134.299 227.375 134.279C227.504 134.259 227.636 134.265 227.763 134.297C227.89 134.328 228.01 134.384 228.116 134.462C228.221 134.539 228.31 134.637 228.378 134.75C228.446 134.862 228.491 134.987 228.511 135.117C228.531 135.247 228.525 135.379 228.494 135.507C228.162 136.804 227.886 138.13 227.637 139.447C227.591 139.673 227.468 139.875 227.291 140.02C227.113 140.165 226.891 140.244 226.662 140.244ZM290.789 129.212C290.576 129.212 290.369 129.143 290.198 129.016C290.028 128.889 289.902 128.71 289.839 128.506C289.444 127.215 289.016 125.929 288.565 124.672C288.514 124.546 288.489 124.412 288.492 124.277C288.494 124.142 288.524 124.008 288.579 123.885C288.634 123.761 288.713 123.651 288.812 123.559C288.911 123.467 289.028 123.397 289.155 123.352C289.282 123.307 289.417 123.288 289.551 123.296C289.685 123.305 289.816 123.341 289.937 123.402C290.057 123.463 290.163 123.548 290.25 123.652C290.336 123.755 290.401 123.875 290.44 124.005C290.901 125.288 291.336 126.609 291.741 127.925C291.787 128.075 291.798 128.234 291.772 128.389C291.746 128.543 291.684 128.69 291.591 128.816C291.499 128.942 291.378 129.045 291.238 129.115C291.099 129.186 290.945 129.223 290.789 129.222V129.212ZM230.624 126.525C230.498 126.525 230.373 126.501 230.256 126.455C230.011 126.357 229.815 126.164 229.711 125.92C229.607 125.677 229.603 125.401 229.702 125.155C230.209 123.875 230.757 122.595 231.334 121.351C231.388 121.23 231.466 121.122 231.562 121.031C231.658 120.941 231.771 120.87 231.895 120.824C232.018 120.778 232.15 120.757 232.282 120.762C232.413 120.767 232.543 120.799 232.662 120.855C232.782 120.911 232.889 120.99 232.978 121.087C233.066 121.185 233.135 121.3 233.18 121.424C233.224 121.549 233.243 121.681 233.236 121.813C233.23 121.946 233.197 122.075 233.14 122.195C232.579 123.405 232.045 124.652 231.55 125.895C231.476 126.081 231.349 126.241 231.183 126.353C231.018 126.465 230.824 126.525 230.624 126.525ZM285.426 115.994C285.246 115.994 285.07 115.945 284.916 115.853C284.762 115.761 284.635 115.629 284.549 115.47C283.886 114.273 283.222 113.11 282.515 112.02C282.402 111.799 282.374 111.545 282.438 111.306C282.501 111.066 282.65 110.859 282.856 110.724C283.063 110.588 283.312 110.535 283.555 110.573C283.799 110.612 284.019 110.74 284.174 110.933C284.905 112.066 285.618 113.266 286.288 114.52C286.413 114.753 286.441 115.027 286.365 115.281C286.289 115.535 286.116 115.748 285.884 115.874C285.743 115.951 285.586 115.992 285.426 115.994ZM237.222 113.893C237.04 113.894 236.862 113.844 236.706 113.75C236.55 113.656 236.423 113.521 236.338 113.36C236.254 113.198 236.214 113.017 236.225 112.835C236.236 112.652 236.296 112.477 236.399 112.326C237.192 111.176 238.035 110.056 238.904 108.992C239.072 108.788 239.315 108.658 239.577 108.633C239.84 108.608 240.103 108.688 240.306 108.857C240.51 109.026 240.639 109.27 240.664 109.534C240.689 109.798 240.609 110.061 240.441 110.266C239.604 111.283 238.781 112.356 238.035 113.46C237.942 113.589 237.82 113.695 237.679 113.767C237.537 113.84 237.38 113.877 237.222 113.877V113.893ZM276.824 104.658C276.579 104.659 276.342 104.569 276.16 104.405C275.186 103.527 274.15 102.722 273.06 101.995C272.943 101.926 272.841 101.834 272.761 101.725C272.681 101.616 272.623 101.491 272.592 101.358C272.561 101.226 272.558 101.089 272.582 100.955C272.605 100.821 272.656 100.693 272.731 100.58C272.805 100.466 272.902 100.369 273.015 100.295C273.129 100.22 273.256 100.169 273.389 100.146C273.522 100.122 273.659 100.126 273.791 100.157C273.923 100.189 274.047 100.247 274.155 100.328C275.322 101.109 276.431 101.974 277.474 102.915C277.625 103.05 277.731 103.227 277.779 103.425C277.827 103.622 277.814 103.829 277.742 104.018C277.67 104.208 277.542 104.371 277.376 104.486C277.209 104.601 277.012 104.662 276.81 104.662L276.824 104.658ZM247.018 103.578C246.809 103.577 246.605 103.51 246.436 103.386C246.266 103.262 246.141 103.087 246.076 102.887C246.011 102.687 246.011 102.471 246.075 102.271C246.14 102.07 246.265 101.896 246.434 101.771C247.574 100.94 248.767 100.186 250.005 99.5142C250.12 99.4516 250.246 99.4123 250.377 99.3987C250.507 99.3851 250.638 99.3974 250.764 99.4349C250.889 99.4723 251.006 99.5342 251.108 99.617C251.209 99.6999 251.294 99.802 251.356 99.9176C251.418 100.033 251.457 100.16 251.471 100.291C251.484 100.421 251.472 100.554 251.435 100.68C251.398 100.806 251.336 100.923 251.254 101.025C251.171 101.127 251.069 101.212 250.954 101.274C249.803 101.905 248.695 102.611 247.636 103.388C247.457 103.519 247.239 103.585 247.018 103.578ZM264.176 98.5774H264.05L263.764 98.544C262.576 98.4119 261.377 98.3862 260.184 98.4673C260.053 98.4763 259.922 98.4593 259.797 98.4174C259.673 98.3754 259.558 98.3093 259.46 98.2227C259.361 98.1362 259.28 98.031 259.222 97.9131C259.164 97.7952 259.129 97.6669 259.12 97.5355C259.111 97.4042 259.128 97.2724 259.17 97.1476C259.212 97.0228 259.277 96.9075 259.363 96.8083C259.45 96.7091 259.554 96.6279 259.672 96.5693C259.789 96.5108 259.917 96.476 260.048 96.467C261.361 96.3764 262.679 96.4043 263.987 96.5504L264.319 96.587C264.449 96.5953 264.577 96.6295 264.695 96.6874C264.813 96.7454 264.918 96.826 265.004 96.9248C265.091 97.0235 265.157 97.1385 265.2 97.263C265.242 97.3875 265.26 97.5192 265.251 97.6505C265.243 97.7819 265.209 97.9103 265.151 98.0285C265.094 98.1466 265.013 98.2522 264.915 98.3392C264.817 98.4262 264.702 98.4929 264.578 98.5355C264.454 98.578 264.323 98.5957 264.193 98.5874L264.176 98.5774Z" fill="#3554B7"/>
<path d="M566.773 260C595.366 260 618.545 256.657 618.545 252.532C618.545 248.408 595.366 245.064 566.773 245.064C538.181 245.064 515.002 248.408 515.002 252.532C515.002 256.657 538.181 260 566.773 260Z" fill="#DDDDDD"/>
</svg>
