<svg width="38" height="38" viewBox="0 0 38 38" fill="none" xmlns="http://www.w3.org/2000/svg">
<path d="M19 37C28.9411 37 37 28.9411 37 19C37 9.05887 28.9411 1 19 1C9.05887 1 1 9.05887 1 19C1 28.9411 9.05887 37 19 37Z" stroke="white"/>
<path d="M15.7008 27.25C15.1176 27.25 15.2167 27.0298 15.0156 26.4746L13.3008 20.8309L26.5008 13" fill="#C8DAEA"/>
<path d="M15.6992 27.2501C16.1492 27.2501 16.348 27.0443 16.5992 26.8001L18.9992 24.4664L16.0055 22.6611" fill="#A9C9DD"/>
<path d="M16.008 22.6616L23.262 28.021C24.0898 28.4777 24.6872 28.2412 24.8934 27.2524L27.8462 13.338C28.1485 12.126 27.3842 11.5762 26.5923 11.9358L9.25377 18.6214C8.07025 19.0961 8.07715 19.7564 9.03804 20.0506L13.4875 21.4393L23.7884 14.9406C24.2747 14.6457 24.721 14.8043 24.3547 15.1294" fill="url(#paint0_linear_223_2169)"/>
<defs>
<linearGradient id="paint0_linear_223_2169" x1="16.7487" y1="20.1058" x2="18.672" y2="26.327" gradientUnits="userSpaceOnUse">
<stop stop-color="#EFF7FC"/>
<stop offset="1" stop-color="white"/>
</linearGradient>
</defs>
</svg>
