<svg width="38" height="38" viewBox="0 0 38 38" fill="none" xmlns="http://www.w3.org/2000/svg">
<path d="M1 19C1 9.05887 9.05887 1 19 1C28.9411 1 37 9.05887 37 19C37 28.9411 28.9411 37 19 37C9.05887 37 1 28.9411 1 19Z" stroke="white"/>
<path d="M19.94 24.9073C19.94 24.9073 20.2866 24.8695 20.464 24.6823C20.6265 24.5109 20.6209 24.1873 20.6209 24.1873C20.6209 24.1873 20.5993 22.6765 21.3139 22.4534C22.0182 22.2341 22.9225 23.9145 23.8823 24.5607C24.6072 25.0492 25.1575 24.9423 25.1575 24.9423L27.7221 24.9073C27.7221 24.9073 29.0631 24.8261 28.4274 23.791C28.3748 23.7062 28.0564 23.025 26.5211 21.6257C24.9124 20.161 25.1284 20.3979 27.0648 17.8639C28.2443 16.3208 28.7157 15.3787 28.5682 14.9759C28.4283 14.5906 27.5606 14.6929 27.5606 14.6929L24.6739 14.7104C24.6739 14.7104 24.4598 14.6818 24.3011 14.7749C24.1461 14.8662 24.0457 15.0791 24.0457 15.0791C24.0457 15.0791 23.5893 16.2728 22.9798 17.2887C21.6942 19.4309 21.1805 19.5443 20.9702 19.4115C20.4809 19.1009 20.603 18.1653 20.603 17.5007C20.603 15.4239 20.9242 14.5583 19.9785 14.3343C19.6649 14.2597 19.4339 14.2108 18.631 14.2025C17.6008 14.1924 16.7293 14.2062 16.2354 14.4431C15.9067 14.6007 15.6532 14.9528 15.8081 14.9731C15.9987 14.998 16.4307 15.0874 16.6599 15.3935C16.9557 15.7889 16.9453 16.6757 16.9453 16.6757C16.9453 16.6757 17.1153 19.1203 16.5481 19.4235C16.1593 19.6318 15.6259 19.2069 14.4793 17.2628C13.8924 16.2673 13.4492 15.1667 13.4492 15.1667C13.4492 15.1667 13.3637 14.9611 13.2106 14.8505C13.0256 14.7169 12.7674 14.6754 12.7674 14.6754L10.0244 14.6929C10.0244 14.6929 9.61211 14.704 9.46092 14.88C9.32663 15.0358 9.45059 15.3593 9.45059 15.3593C9.45059 15.3593 11.5983 20.2919 14.0304 22.7779C16.2607 25.0566 18.7925 24.9073 18.7925 24.9073H19.94Z" fill="white"/>
</svg>
