<svg width="38" height="38" viewBox="0 0 38 38" fill="none" xmlns="http://www.w3.org/2000/svg">
<path d="M19 37C28.9411 37 37 28.9411 37 19C37 9.05887 28.9411 1 19 1C9.05887 1 1 9.05887 1 19C1 28.9411 9.05887 37 19 37Z" stroke="white"/>
<path fill-rule="evenodd" clip-rule="evenodd" d="M19.5941 29.014H19.5897C17.7983 29.0134 16.0381 28.5639 14.4748 27.7112L8.80078 29.1996L10.3192 23.6532C9.38258 22.03 8.88972 20.1887 8.89052 18.3023C8.89287 12.4009 13.6944 7.59961 19.594 7.59961C22.4573 7.60085 25.1446 8.71551 27.1654 10.7387C29.1862 12.7617 30.2985 15.4509 30.2974 18.3107C30.295 24.2108 25.4954 29.0116 19.5941 29.014ZM14.7392 25.7736L15.0641 25.9664C16.43 26.7769 17.9957 27.2058 19.592 27.2064H19.5956C24.499 27.2064 28.4898 23.2155 28.4917 18.3102C28.4927 15.9331 27.5682 13.698 25.8886 12.0164C24.209 10.3348 21.9753 9.40829 19.5991 9.40747C14.692 9.40747 10.7012 13.398 10.6992 18.3029C10.6985 19.9839 11.1689 21.621 12.0594 23.0374L12.2709 23.374L11.3722 26.6568L14.7392 25.7736ZM24.6209 20.6151C24.8074 20.7053 24.9334 20.7661 24.9872 20.8559C25.054 20.9674 25.054 21.5029 24.8313 22.1277C24.6083 22.7524 23.5399 23.3226 23.026 23.3993C22.5653 23.4682 21.9822 23.4969 21.3416 23.2933C20.9531 23.1701 20.455 23.0055 19.8169 22.73C17.3097 21.6474 15.6154 19.2174 15.2952 18.7581C15.2727 18.7259 15.257 18.7034 15.2483 18.6917L15.2461 18.6888C15.1046 18.5 14.1562 17.2347 14.1562 15.9251C14.1562 14.6932 14.7614 14.0475 15.0399 13.7503C15.059 13.73 15.0766 13.7112 15.0923 13.6941C15.3374 13.4263 15.6272 13.3594 15.8054 13.3594C15.9837 13.3594 16.1622 13.361 16.318 13.3688C16.3372 13.3698 16.3572 13.3697 16.3779 13.3696C16.5338 13.3687 16.7281 13.3675 16.9197 13.8279C16.9935 14.0051 17.1014 14.2678 17.2152 14.5448C17.4453 15.1051 17.6996 15.7241 17.7443 15.8137C17.8112 15.9476 17.8558 16.1037 17.7666 16.2823C17.7532 16.309 17.7409 16.3343 17.729 16.3585C17.6621 16.4952 17.6128 16.5957 17.4992 16.7284C17.4545 16.7806 17.4083 16.8368 17.3621 16.8931C17.2701 17.0051 17.1781 17.1171 17.098 17.197C16.9641 17.3303 16.8247 17.475 16.9808 17.7427C17.1368 18.0105 17.6735 18.8862 18.4685 19.5954C19.3232 20.3577 20.066 20.6799 20.4425 20.8432C20.516 20.8751 20.5756 20.901 20.6193 20.9228C20.8866 21.0568 21.0426 21.0343 21.1986 20.8559C21.3547 20.6774 21.8672 20.075 22.0454 19.8073C22.2237 19.5396 22.4021 19.5842 22.6472 19.6734C22.8924 19.7627 24.2072 20.4097 24.4747 20.5435C24.5269 20.5696 24.5757 20.5932 24.6209 20.6151Z" fill="#FDFDFD"/>
</svg>
