<svg width="22" height="24" viewBox="0 0 22 24" fill="none" xmlns="http://www.w3.org/2000/svg">
<path d="M7.87362 5.68735C8.14449 7.01073 7.55108 7.40968 7.55108 7.40968L5.82226 8.45461C5.13323 8.84708 5.50845 9.66852 5.50845 9.66852C8.2099 15.3067 11.1982 17.0034 12.2859 17.7564C13.0731 18.3013 13.5524 17.9132 13.5524 17.9132L15.7792 16.1272C16.5701 15.3821 17.1728 15.8946 17.1728 15.8946L21.5661 19.0517C22.3135 19.5553 21.978 20.5774 21.4393 21.4589C20.9063 22.3303 18.6844 24.4076 15.9235 23.9294C13.1619 23.4518 8.25409 21.5638 4.89931 16.7264C1.51133 11.8417 0.331741 7.56475 0.331741 7.56475C-1.10274 3.11933 2.57933 0.752235 2.57933 0.752235C5.47725 -1.00443 6.83334 0.866257 6.83334 0.866257C6.83334 0.866257 7.60375 4.36325 7.87362 5.68735Z" fill="#8B4513"/>
</svg>
