<svg width="32" height="40" viewBox="0 0 32 40" fill="none" xmlns="http://www.w3.org/2000/svg">
<path d="M20.3636 15.7165C20.3636 16.5643 20.1077 17.393 19.6282 18.0979C19.1488 18.8028 18.4672 19.3521 17.6699 19.6766C16.8725 20.001 15.9952 20.0859 15.1487 19.9205C14.3022 19.7551 13.5247 19.3469 12.9144 18.7474C12.3042 18.148 11.8886 17.3842 11.7202 16.5527C11.5518 15.7213 11.6383 14.8594 11.9685 14.0762C12.2988 13.293 12.8581 12.6236 13.5757 12.1526C14.2933 11.6816 15.137 11.4302 16 11.4302C17.1573 11.4302 18.2672 11.8818 19.0856 12.6856C19.9039 13.4895 20.3636 14.5797 20.3636 15.7165ZM32 15.7165C32 24.0891 17.6582 38.9341 17.0473 39.5628C16.9116 39.701 16.7489 39.811 16.569 39.8862C16.389 39.9613 16.1955 40 16 40C15.8045 40 15.611 39.9613 15.431 39.8862C15.2511 39.811 15.0884 39.701 14.9527 39.5628C14.3418 38.9341 0 24.0891 0 15.7165C0 11.5482 1.68571 7.55068 4.68629 4.60326C7.68687 1.65584 11.7565 0 16 0C20.2435 0 24.3131 1.65584 27.3137 4.60326C30.3143 7.55068 32 11.5482 32 15.7165ZM23.2727 15.7165C23.2727 14.3036 22.8462 12.9224 22.0471 11.7476C21.2479 10.5728 20.1121 9.65714 18.7832 9.11644C17.4542 8.57574 15.9919 8.43426 14.5812 8.70991C13.1704 8.98556 11.8745 9.66595 10.8574 10.665C9.8403 11.6641 9.14764 12.937 8.86702 14.3228C8.5864 15.7086 8.73042 17.145 9.28088 18.4504C9.83133 19.7557 10.7635 20.8715 11.9595 21.6564C13.1555 22.4414 14.5616 22.8604 16 22.8604C17.9288 22.8604 19.7787 22.1077 21.1426 20.768C22.5065 19.4283 23.2727 17.6112 23.2727 15.7165Z" fill="white"/>
</svg>
