<svg width="36" height="40" viewBox="0 0 36 40" fill="none" xmlns="http://www.w3.org/2000/svg">
<path d="M12.8841 9.47892C13.3274 11.6845 12.3563 12.3495 12.3563 12.3495L9.52734 14.091C8.39983 14.7451 9.01383 16.1142 9.01383 16.1142C13.4344 25.5112 18.3243 28.339 20.1042 29.594C21.3923 30.5022 22.1766 29.8553 22.1766 29.8553L25.8206 26.8787C27.1148 25.6368 28.1009 26.491 28.1009 26.491L35.29 31.7528C36.5131 32.5922 35.964 34.2957 35.0825 35.7648C34.2103 37.2171 30.5745 40.6794 26.0567 39.8824C21.5377 39.0863 13.5067 35.9396 8.01705 27.8773C2.47309 19.7361 0.542849 12.6079 0.542849 12.6079C-1.80448 5.19889 4.22072 1.25372 4.22072 1.25372C8.96277 -1.67404 11.1818 1.44376 11.1818 1.44376C11.1818 1.44376 12.4425 7.27209 12.8841 9.47892Z" fill="white"/>
</svg>
