<svg width="370" height="208" viewBox="0 0 370 208" fill="none" xmlns="http://www.w3.org/2000/svg">
<g clip-path="url(#clip0_223_3502)">
<rect width="370" height="208" rx="10" fill="#8B4513"/>
<path d="M59.7335 92.4233L123.104 73.6386L117.846 56L35 80.613L39.3291 95.4394V147H125V92.4241L59.7335 92.4233ZM119.535 106.067H104.044L112.638 97.8809H119.535L119.535 106.067ZM44.8004 124.259V111.525H119.535V124.259H44.8004ZM80.5239 106.067L89.1191 97.8809H105.371L96.7771 106.067H80.5239ZM73.2592 106.067H57.1063L65.7037 97.8809H81.8536L73.2592 106.067ZM49.8417 106.067H44.8V97.8809H58.4397L49.8417 106.067ZM78.8635 81.4862L63.6805 85.9978L52.8493 80.6957L68.0293 76.1823L78.8635 81.4862ZM75.2861 74.0249L90.4145 69.526L101.252 74.8317L86.1195 79.3288L75.2861 74.0249ZM116.72 70.2355L108.509 72.6751L97.6707 67.3703L114.389 62.3995L116.72 70.2355ZM45.596 82.8532L56.4256 88.1544L43.8393 91.8947L41.4988 84.0707L45.596 82.8532ZM44.8003 128.807H79.4332V141.541H44.8003V128.807ZM84.9015 141.541V128.807H119.534V141.541H84.9015Z" fill="white"/>
<path d="M175.312 76.3594C172.854 76.3594 170.922 77.1823 169.516 78.8281C168.109 80.474 167.406 82.724 167.406 85.5781C167.406 88.526 168.089 90.8021 169.453 92.4062C170.818 94 172.76 94.7969 175.281 94.7969C176.906 94.7969 178.734 94.4948 180.766 93.8906V96.3906C179.797 96.7448 178.865 96.9844 177.969 97.1094C177.073 97.2448 176.042 97.3125 174.875 97.3125C171.51 97.3125 168.917 96.2917 167.094 94.25C165.281 92.1979 164.375 89.2969 164.375 85.5469C164.375 83.1927 164.807 81.1302 165.672 79.3594C166.547 77.5885 167.812 76.224 169.469 75.2656C171.135 74.3073 173.094 73.8281 175.344 73.8281C177.76 73.8281 179.865 74.276 181.656 75.1719L180.5 77.6094C178.677 76.776 176.948 76.3594 175.312 76.3594ZM195.828 97L188.297 76.9688H188.172C188.328 78.6354 188.406 80.6927 188.406 83.1406V97H185.75V74.1562H190L197.047 92.875H197.172L204.344 74.1562H208.562V97H205.719V82.9531C205.719 81.3906 205.792 79.4062 205.938 77H205.812L198.188 97H195.828ZM234.719 85.5469C234.719 89.2031 233.792 92.0781 231.938 94.1719C230.094 96.2656 227.51 97.3125 224.188 97.3125C220.823 97.3125 218.219 96.2865 216.375 94.2344C214.542 92.1719 213.625 89.2656 213.625 85.5156C213.625 81.7969 214.536 78.9167 216.359 76.875C218.193 74.8229 220.812 73.7969 224.219 73.7969C227.531 73.7969 230.109 74.8385 231.953 76.9219C233.797 78.9948 234.719 81.8698 234.719 85.5469ZM216.656 85.5469C216.656 88.5677 217.297 90.8698 218.578 92.4531C219.859 94.0365 221.729 94.8281 224.188 94.8281C226.635 94.8281 228.495 94.0469 229.766 92.4844C231.036 90.9219 231.672 88.6094 231.672 85.5469C231.672 82.4948 231.042 80.1979 229.781 78.6562C228.521 77.1042 226.667 76.3281 224.219 76.3281C221.74 76.3281 219.859 77.1146 218.578 78.6875C217.297 80.25 216.656 82.5365 216.656 85.5469ZM246.547 97H243.656V76.6875H236.516V74.1562H253.641V76.6875H246.547V97ZM271.75 80.875C271.75 83.2083 270.953 85 269.359 86.25C267.766 87.4896 265.521 88.1094 262.625 88.1094H260V97H257.125V74.1562H263.172C268.891 74.1562 271.75 76.3958 271.75 80.875ZM260 85.6406H262.297C264.568 85.6406 266.214 85.276 267.234 84.5469C268.255 83.8073 268.766 82.625 268.766 81C268.766 79.5312 268.292 78.4323 267.344 77.7031C266.396 76.974 264.917 76.6094 262.906 76.6094H260V85.6406ZM289.266 97H276.5V74.1562H289.266V76.6875H279.375V83.8125H288.688V86.3125H279.375V94.4688H289.266V97ZM301.547 97H298.656V76.6875H291.516V74.1562H308.641V76.6875H301.547V97ZM327.922 90.3125C327.922 92.4583 327.203 94.1094 325.766 95.2656C324.328 96.4219 322.286 97 319.641 97H312.125V74.1562H315V83.8125H319.281C322.083 83.8125 324.224 84.3698 325.703 85.4844C327.182 86.5885 327.922 88.1979 327.922 90.3125ZM315 94.5312H319.359C323.089 94.5312 324.953 93.125 324.953 90.3125C324.953 88.9271 324.474 87.9167 323.516 87.2812C322.568 86.6354 321.042 86.3125 318.938 86.3125H315V94.5312ZM160.359 118.156H166.875C169.938 118.156 172.146 118.615 173.5 119.531C174.865 120.438 175.547 121.865 175.547 123.812C175.547 125.167 175.177 126.286 174.438 127.172C173.698 128.047 172.62 128.615 171.203 128.875V129.031C172.964 129.333 174.255 129.943 175.078 130.859C175.911 131.776 176.328 132.99 176.328 134.5C176.328 136.542 175.63 138.135 174.234 139.281C172.839 140.427 170.891 141 168.391 141H160.359V118.156ZM163.234 127.875H167.453C169.245 127.875 170.547 127.589 171.359 127.016C172.172 126.443 172.578 125.484 172.578 124.141C172.578 122.891 172.13 121.99 171.234 121.438C170.349 120.885 168.943 120.609 167.016 120.609H163.234V127.875ZM163.234 130.281V138.562H167.844C169.677 138.562 171.036 138.208 171.922 137.5C172.807 136.792 173.25 135.719 173.25 134.281C173.25 132.917 172.781 131.911 171.844 131.266C170.906 130.609 169.5 130.281 167.625 130.281H163.234ZM190.953 120.359C188.495 120.359 186.562 121.182 185.156 122.828C183.75 124.474 183.047 126.724 183.047 129.578C183.047 132.526 183.729 134.802 185.094 136.406C186.458 138 188.401 138.797 190.922 138.797C192.547 138.797 194.375 138.495 196.406 137.891V140.391C195.438 140.745 194.505 140.984 193.609 141.109C192.714 141.245 191.682 141.312 190.516 141.312C187.151 141.312 184.557 140.292 182.734 138.25C180.922 136.198 180.016 133.297 180.016 129.547C180.016 127.193 180.448 125.13 181.312 123.359C182.188 121.589 183.453 120.224 185.109 119.266C186.776 118.307 188.734 117.828 190.984 117.828C193.401 117.828 195.505 118.276 197.297 119.172L196.141 121.609C194.318 120.776 192.589 120.359 190.953 120.359ZM214.156 141H201.391V118.156H214.156V120.688H204.266V127.812H213.578V130.312H204.266V138.469H214.156V141ZM227.516 118.156H234.031C237.094 118.156 239.302 118.615 240.656 119.531C242.021 120.438 242.703 121.865 242.703 123.812C242.703 125.167 242.333 126.286 241.594 127.172C240.854 128.047 239.776 128.615 238.359 128.875V129.031C240.12 129.333 241.411 129.943 242.234 130.859C243.068 131.776 243.484 132.99 243.484 134.5C243.484 136.542 242.786 138.135 241.391 139.281C239.995 140.427 238.047 141 235.547 141H227.516V118.156ZM230.391 127.875H234.609C236.401 127.875 237.703 127.589 238.516 127.016C239.328 126.443 239.734 125.484 239.734 124.141C239.734 122.891 239.286 121.99 238.391 121.438C237.505 120.885 236.099 120.609 234.172 120.609H230.391V127.875ZM230.391 130.281V138.562H235C236.833 138.562 238.193 138.208 239.078 137.5C239.964 136.792 240.406 135.719 240.406 134.281C240.406 132.917 239.938 131.911 239 131.266C238.062 130.609 236.656 130.281 234.781 130.281H230.391ZM248.359 118.156H251.047V130.703C251.047 131.589 251.021 132.76 250.969 134.219C250.917 135.677 250.865 136.625 250.812 137.062H250.953L263.516 118.156H266.719V141H264.031V128.578C264.031 127.495 264.068 126.234 264.141 124.797C264.214 123.349 264.266 122.411 264.297 121.984H264.156L251.562 141H248.359V118.156ZM291.219 147.016H288.469V141H272.75V147.016H270V138.438H271.766C273.307 135.812 274.641 132.63 275.766 128.891C276.891 125.151 277.552 121.573 277.75 118.156H288.312V138.438H291.219V147.016ZM285.453 138.438V120.75H280.281C280.083 123.344 279.448 126.37 278.375 129.828C277.312 133.286 276.12 136.156 274.797 138.438H285.453ZM307.812 141H295.047V118.156H307.812V120.688H297.922V127.812H307.234V130.312H297.922V138.469H307.812V141ZM332.797 129.547C332.797 133.203 331.87 136.078 330.016 138.172C328.172 140.266 325.589 141.312 322.266 141.312C318.901 141.312 316.297 140.286 314.453 138.234C312.62 136.172 311.703 133.266 311.703 129.516C311.703 125.797 312.615 122.917 314.438 120.875C316.271 118.823 318.891 117.797 322.297 117.797C325.609 117.797 328.188 118.839 330.031 120.922C331.875 122.995 332.797 125.87 332.797 129.547ZM314.734 129.547C314.734 132.568 315.375 134.87 316.656 136.453C317.938 138.036 319.807 138.828 322.266 138.828C324.714 138.828 326.573 138.047 327.844 136.484C329.115 134.922 329.75 132.609 329.75 129.547C329.75 126.495 329.12 124.198 327.859 122.656C326.599 121.104 324.745 120.328 322.297 120.328C319.818 120.328 317.938 121.115 316.656 122.688C315.375 124.25 314.734 126.536 314.734 129.547Z" fill="white"/>
</g>
<defs>
<clipPath id="clip0_223_3502">
<rect width="370" height="208" fill="white"/>
</clipPath>
</defs>
</svg>
